# 3ds Max Wavefront OBJ Exporter v0.97b - (c)2007 guruware
# File Created: 02.08.2015 22:13:24

mtllib Tun_Wall_SL_Bend.mtl

#
# object Tun_wall_sl_bend
#

v  40.8356 -74.0965 0.0006
v  61.1860 -150.0468 -0.0003
v  61.2071 -150.0345 177.2857
v  40.8600 -74.0965 177.2866
v  50.5764 -156.1723 203.1230
v  28.5848 -74.0965 203.1237
v  33.0243 -166.3058 222.1732
v  8.3176 -74.0965 222.1740
v  -10.6142 -191.5002 245.7945
v  -42.0718 -74.0962 245.7955
v  119.0950 -201.6458 178.3195
v  119.1402 -201.5674 -0.0013
v  65.2650 -147.6918 -0.0003
v  65.1865 -147.7372 178.3208
v  112.5639 -212.9579 205.8938
v  53.8739 -154.2685 205.8956
v  101.8504 -231.5139 226.0668
v  35.3175 -164.9819 226.0685
v  76.3313 -275.7140 250.0578
v  -8.8819 -190.5002 250.0587
v  116.7853 -205.6464 -0.0013
v  116.7975 -205.6252 177.2848
v  45.4548 -74.0965 178.3220
v  45.5455 -74.0965 0.0006
v  110.6597 -216.2562 203.1224
v  32.3915 -74.0965 205.8975
v  100.5259 -233.8083 222.1725
v  10.9640 -74.0965 226.0703
v  75.3312 -277.4462 245.7935
v  -40.0717 -74.0962 250.0597
# 30 vertices

vn -0.9659 -0.2588 0.0001
vn -0.8661 -0.4998 0.0001
vn -0.8434 -0.4868 -0.2274
vn -0.9420 -0.2524 -0.2213
vn -0.6901 -0.3983 -0.6043
vn -0.7795 -0.2088 -0.5905
vn -0.4708 -0.2717 -0.8394
vn -0.5381 -0.1442 -0.8304
vn -0.3680 -0.2122 -0.9053
vn -0.4213 -0.1129 -0.8999
vn 0.6898 0.6898 0.2198
vn 0.7071 0.7071 0.0005
vn 0.8661 0.4998 0.0005
vn 0.8434 0.4868 0.2274
vn 0.5707 0.5707 0.5905
vn 0.6909 0.3991 0.6028
vn 0.3945 0.3938 0.8302
vn 0.4710 0.2723 0.8390
vn 0.3098 0.3098 0.8989
vn 0.3684 0.2129 0.9049
vn 0.0000 0.0000 -1.0000
vn 0.8658 -0.5004 0.0000
vn 0.0000 1.0000 0.0000
vn -0.8801 -0.2358 0.4120
vn -0.7844 -0.4525 0.4242
vn -0.7075 -0.7067 0.0001
vn -0.6896 -0.6896 -0.2212
vn -0.5707 -0.5707 -0.5905
vn -0.3939 -0.3939 -0.8305
vn -0.3088 -0.3081 -0.8998
vn 0.9659 0.2588 0.0005
vn 0.9423 0.2525 0.2197
vn 0.7796 0.2089 0.5904
vn 0.5385 0.1442 0.8302
vn 0.4228 0.1133 0.8991
vn -0.6442 -0.6442 0.4122
# 36 vertex normals

vt 0.0304 0.0050 0.0000
vt 0.3312 0.0050 0.0000
vt 0.3312 0.6153 0.0000
vt 0.0304 0.6153 0.0000
vt 0.3312 0.7051 0.0000
vt 0.0304 0.7051 0.0000
vt 0.3313 0.8030 0.0000
vt 0.0304 0.8030 0.0000
vt 0.3318 0.9894 0.0000
vt 0.0304 0.9894 0.0000
vt 1.0304 0.6153 0.0000
vt 1.0304 0.0050 0.0000
vt 1.3312 0.0050 0.0000
vt 1.3312 0.6153 0.0000
vt 1.0304 0.7051 0.0000
vt 1.3312 0.7051 0.0000
vt 1.0304 0.8030 0.0000
vt 1.3313 0.8030 0.0000
vt 1.0304 0.9894 0.0000
vt 1.3318 0.9894 0.0000
vt 0.8185 0.8504 0.0000
vt 0.7800 0.7070 0.0000
vt 0.7889 0.7070 0.0000
vt 0.8262 0.8460 0.0000
vt 0.6871 0.9956 0.0000
vt 0.6868 0.6607 0.0000
vt 0.6957 0.6607 0.0000
vt 0.6957 0.9975 0.0000
vt 0.7047 0.9955 0.0000
vt 0.6960 0.9975 0.0000
vt 0.6958 0.6607 0.0000
vt 0.7047 0.6607 0.0000
vt 0.7210 0.8836 0.0000
vt 0.7291 0.8801 0.0000
vt 0.7397 0.9367 0.0000
vt 0.7308 0.9367 0.0000
vt 0.7587 0.8836 0.0000
vt 0.7488 0.9367 0.0000
vt 0.7399 0.9367 0.0000
vt 0.7505 0.8801 0.0000
vt 0.7293 0.9913 0.0000
vt 0.7210 0.9883 0.0000
vt 0.7587 0.9883 0.0000
vt 0.7503 0.9913 0.0000
vt 0.8730 0.8801 0.0000
vt 0.8744 0.8889 0.0000
vt 0.7679 0.8890 0.0000
vt 0.7679 0.8801 0.0000
vt 0.6478 0.9868 0.0000
vt 0.6478 0.6809 0.0000
vt 0.6597 0.6809 0.0000
vt 0.6597 0.9868 0.0000
vt 0.7590 0.9852 0.0000
vt 0.7589 0.8801 0.0000
vt 0.7678 0.8801 0.0000
vt 0.7678 0.9866 0.0000
vt 0.6317 0.0050 0.0000
vt 0.6317 0.6153 0.0000
vt 0.6317 0.7051 0.0000
vt 0.6317 0.8030 0.0000
vt 0.6317 0.9894 0.0000
vt 1.6317 0.0050 0.0000
vt 1.6317 0.6153 0.0000
vt 1.6317 0.7051 0.0000
vt 1.6317 0.8030 0.0000
vt 1.6317 0.9894 0.0000
vt 0.8185 0.5635 0.0000
vt 0.8262 0.5680 0.0000
vt 0.6478 0.3732 0.0000
vt 0.6597 0.3732 0.0000
# 70 texture coords

g Tun_wall_sl_bend
usemtl default
s 1
f 1/1/1 2/2/2 3/3/3 4/4/4 
f 4/4/4 3/3/3 5/5/5 6/6/6 
f 6/6/6 5/5/5 7/7/7 8/8/8 
f 8/8/8 7/7/7 9/9/9 10/10/10 
f 11/11/11 12/12/12 13/13/13 14/14/14 
f 15/15/15 11/11/11 14/14/14 16/16/16 
f 17/17/17 15/15/15 16/16/16 18/18/18 
f 19/19/19 17/17/17 18/18/18 20/20/20 
f 21/21/21 2/22/21 13/23/21 12/24/21 
f 22/25/22 21/26/22 12/27/22 11/28/22 
f 4/29/23 23/30/23 24/31/23 1/32/23 
f 22/33/22 11/34/22 15/35/22 25/36/22 
f 4/37/23 6/38/23 26/39/23 23/40/23 
f 25/36/22 15/35/22 17/41/22 27/42/22 
f 8/43/23 28/44/23 26/39/23 6/38/23 
f 27/45/22 17/46/22 19/47/22 29/48/22 
f 10/49/24 9/50/25 20/51/25 30/52/24 
f 8/53/23 10/54/23 30/55/23 28/56/23 
f 2/2/2 21/57/26 22/58/27 3/3/3 
f 3/3/3 22/58/27 25/59/28 5/5/5 
f 5/5/5 25/59/28 27/60/29 7/7/7 
f 7/7/7 27/60/29 29/61/30 9/9/9 
f 13/13/13 24/62/31 23/63/32 14/14/14 
f 14/14/14 23/63/32 26/64/33 16/16/16 
f 16/16/16 26/64/33 28/65/34 18/18/18 
f 18/18/18 28/65/34 30/66/35 20/20/20 
f 2/22/21 1/67/21 24/68/21 13/23/21 
f 9/50/25 29/69/36 19/70/36 20/51/25 
# 28 polygons

