# 3ds Max Wavefront OBJ Exporter v0.97b - (c)2007 guruware
# File Created: 02.08.2015 22:13:54

mtllib Tun_Wall_Bend.mtl

#
# object Tun_wall_bend
#

v  55.9496 -51.8622 -0.0001
v  75.4697 -71.3825 -0.0005
v  75.4840 -71.3628 177.2856
v  55.9694 -51.8479 177.2859
v  68.2687 -81.2937 203.1229
v  46.0385 -59.0631 203.1232
v  56.3557 -97.6903 222.1731
v  29.6417 -70.9758 222.1734
v  26.7374 -138.4558 245.7943
v  -11.1243 -100.5937 245.7947
v  78.2382 -67.5721 -0.0005
v  59.7601 -49.0938 -0.0001
v  59.6868 -49.1472 178.3210
v  78.1849 -67.6454 178.3205
v  49.1185 -56.8253 205.8960
v  70.5068 -78.2132 205.8953
v  31.7837 -69.4196 226.0689
v  57.9122 -95.5480 226.0682
v  -9.5060 -99.4180 250.0589
v  27.9132 -136.8376 250.0585
v  127.3322 -88.2096 177.2849
v  127.3322 -88.2340 -0.0013
v  127.3323 -83.5240 -0.0013
v  127.3323 -83.6146 178.3195
v  39.1232 0.0004 177.2866
v  43.7180 0.0004 178.3220
v  43.8087 0.0005 0.0006
v  39.0988 0.0005 0.0006
v  127.3322 -96.6768 205.8938
v  127.3322 -100.4851 203.1224
v  26.8480 0.0005 203.1237
v  30.6547 0.0005 205.8975
v  127.3320 -118.1033 226.0668
v  127.3320 -120.7526 222.1725
v  6.5808 0.0006 222.1740
v  9.2272 0.0006 226.0703
v  127.3317 -169.1413 250.0578
v  127.3317 -171.1415 245.7936
v  -43.8087 0.0009 245.7955
v  -41.8085 0.0009 250.0597
v  100.0664 -83.9153 -0.0009
v  100.0740 -83.8922 177.2852
v  43.4403 -27.2578 177.2863
v  43.4171 -27.2653 0.0003
v  96.2806 -95.5667 203.1227
v  31.7657 -31.0510 203.1235
v  90.0175 -114.8422 222.1728
v  12.4905 -37.3138 222.1737
v  74.4462 -162.7650 245.7939
v  -35.4328 -52.8847 245.7951
v  47.8965 -25.8099 0.0003
v  47.8103 -25.8380 178.3215
v  101.4939 -79.5221 178.3201
v  101.5220 -79.4359 -0.0009
v  35.3865 -29.8746 205.8968
v  97.4574 -91.9451 205.8945
v  15.0079 -36.4959 226.0696
v  90.8361 -112.3232 226.0675
v  -33.5305 -52.2666 250.0593
v  75.0642 -160.8627 250.0582
# 60 vertices

vn -0.8090 -0.5878 0.0001
vn -0.5877 -0.8091 0.0001
vn -0.5730 -0.7882 -0.2243
vn -0.7885 -0.5726 -0.2243
vn -0.4708 -0.6485 -0.5982
vn -0.6484 -0.4710 -0.5981
vn -0.3239 -0.4455 -0.8346
vn -0.4456 -0.3235 -0.8347
vn -0.2498 -0.3435 -0.9053
vn -0.3438 -0.2496 -0.9053
vn 0.5877 0.8091 0.0005
vn 0.8090 0.5878 0.0005
vn 0.7884 0.5729 0.2243
vn 0.5730 0.7882 0.2243
vn 0.6493 0.4715 0.5967
vn 0.4715 0.6493 0.5967
vn 0.4458 0.3241 0.8344
vn 0.3241 0.4461 0.8342
vn 0.3442 0.2503 0.9049
vn 0.2500 0.3448 0.9048
vn 0.0000 0.0000 -1.0000
vn 1.0000 0.0000 0.0000
vn 0.0000 1.0000 0.0000
vn -0.7329 -0.5319 0.4243
vn -0.5324 -0.7325 0.4242
vn -0.3089 -0.9511 0.0001
vn -0.1564 -0.9877 0.0001
vn -0.1526 -0.9629 -0.2228
vn -0.3013 -0.9268 -0.2243
vn -0.9268 -0.3011 -0.2243
vn -0.9629 -0.1525 -0.2228
vn -0.9877 -0.1564 0.0001
vn -0.9511 -0.3090 0.0001
vn -0.1259 -0.7949 -0.5935
vn -0.2479 -0.7621 -0.5981
vn -0.7621 -0.2478 -0.5981
vn -0.7949 -0.1259 -0.5935
vn -0.0870 -0.5485 -0.8316
vn -0.1701 -0.5241 -0.8345
vn -0.5238 -0.1701 -0.8347
vn -0.5486 -0.0869 -0.8316
vn -0.0671 -0.4241 -0.9031
vn -0.1313 -0.4045 -0.9051
vn -0.4041 -0.1313 -0.9052
vn -0.4235 -0.0671 -0.9034
vn 0.9511 0.3090 0.0005
vn 0.9877 0.1564 0.0005
vn 0.9632 0.1525 0.2213
vn 0.9268 0.3011 0.2243
vn 0.3013 0.9268 0.2243
vn 0.1526 0.9632 0.2213
vn 0.1564 0.9877 0.0005
vn 0.3089 0.9511 0.0005
vn 0.7959 0.1261 0.5922
vn 0.7633 0.2478 0.5966
vn 0.2480 0.7631 0.5968
vn 0.1259 0.7959 0.5922
vn 0.5489 0.0869 0.8313
vn 0.5242 0.1705 0.8344
vn 0.1701 0.5241 0.8345
vn 0.0869 0.5491 0.8312
vn 0.4244 0.0671 0.9030
vn 0.4048 0.1312 0.9049
vn 0.1313 0.4045 0.9051
vn 0.0671 0.4241 0.9031
vn -0.2801 -0.8610 0.4244
vn -0.1419 -0.8958 0.4212
vn -0.8613 -0.2796 0.4242
vn -0.8958 -0.1419 0.4212
# 69 vertex normals

vt 0.1908 0.0060 0.0000
vt 0.2787 0.0060 0.0000
vt 0.2787 0.6107 0.0000
vt 0.1908 0.6107 0.0000
vt 0.2787 0.7075 0.0000
vt 0.1908 0.7075 0.0000
vt 0.2787 0.8013 0.0000
vt 0.1908 0.8013 0.0000
vt 0.2787 0.9900 0.0000
vt 0.1908 0.9900 0.0000
vt 1.1853 0.0060 0.0000
vt 1.2748 0.0060 0.0000
vt 1.2749 0.6108 0.0000
vt 1.1853 0.6108 0.0000
vt 1.2749 0.7075 0.0000
vt 1.1854 0.7075 0.0000
vt 1.2749 0.8014 0.0000
vt 1.1854 0.8014 0.0000
vt 1.2749 0.9896 0.0000
vt 1.1854 0.9896 0.0000
vt 0.5585 0.4745 0.0000
vt 0.5585 0.6455 0.0000
vt 0.5285 0.6455 0.0000
vt 0.5285 0.4745 0.0000
vt 1.4628 0.6108 0.0000
vt 1.4628 0.0058 0.0000
vt 1.5088 0.0058 0.0000
vt 1.5088 0.6108 0.0000
vt 0.4628 0.0058 0.0000
vt 0.5088 0.0058 0.0000
vt 0.5088 0.6108 0.0000
vt 0.4628 0.6108 0.0000
vt 1.5088 0.7076 0.0000
vt 1.4628 0.7076 0.0000
vt 0.4628 0.7076 0.0000
vt 0.5088 0.7076 0.0000
vt 1.5088 0.7998 0.0000
vt 1.4628 0.7998 0.0000
vt 0.4628 0.7998 0.0000
vt 0.5088 0.7998 0.0000
vt 1.5088 0.9884 0.0000
vt 1.4628 0.9884 0.0000
vt 0.5945 0.5216 0.0000
vt 0.5945 0.6747 0.0000
vt 0.5744 0.6747 0.0000
vt 0.5744 0.5216 0.0000
vt 0.4628 0.9884 0.0000
vt 0.5088 0.9884 0.0000
vt 0.3664 0.0060 0.0000
vt 0.4541 0.0060 0.0000
vt 0.4541 0.6107 0.0000
vt 0.3664 0.6107 0.0000
vt 0.1018 0.6107 0.0000
vt 0.0061 0.6107 0.0000
vt 0.0061 0.0060 0.0000
vt 0.1018 0.0060 0.0000
vt 0.4541 0.7075 0.0000
vt 0.3664 0.7075 0.0000
vt 0.1018 0.7075 0.0000
vt 0.0061 0.7075 0.0000
vt 0.4541 0.8013 0.0000
vt 0.3664 0.8013 0.0000
vt 0.1018 0.8013 0.0000
vt 0.0061 0.8013 0.0000
vt 0.4541 0.9900 0.0000
vt 0.3664 0.9900 0.0000
vt 0.1018 0.9900 0.0000
vt 0.0061 0.9900 0.0000
vt 1.3643 0.0060 0.0000
vt 1.4538 0.0060 0.0000
vt 1.4541 0.6108 0.0000
vt 1.3644 0.6108 0.0000
vt 1.0956 0.6108 0.0000
vt 1.0061 0.6108 0.0000
vt 1.0063 0.0060 0.0000
vt 1.0958 0.0060 0.0000
vt 1.4541 0.7075 0.0000
vt 1.3645 0.7075 0.0000
vt 1.0956 0.7075 0.0000
vt 1.0061 0.7075 0.0000
vt 1.4541 0.8014 0.0000
vt 1.3645 0.8014 0.0000
vt 1.0956 0.8014 0.0000
vt 1.0061 0.8014 0.0000
vt 1.4541 0.9896 0.0000
vt 1.3645 0.9896 0.0000
vt 1.0956 0.9896 0.0000
vt 1.0061 0.9896 0.0000
vt 0.5585 0.8165 0.0000
vt 0.5585 0.9922 0.0000
vt 0.5285 0.9922 0.0000
vt 0.5285 0.8165 0.0000
vt 0.5285 0.3034 0.0000
vt 0.5285 0.1340 0.0000
vt 0.5585 0.1340 0.0000
vt 0.5585 0.3034 0.0000
vt 0.5945 0.8277 0.0000
vt 0.5945 0.9809 0.0000
vt 0.5744 0.9809 0.0000
vt 0.5744 0.8277 0.0000
vt 0.5744 0.3685 0.0000
vt 0.5744 0.2161 0.0000
vt 0.5945 0.2161 0.0000
vt 0.5945 0.3685 0.0000
# 104 texture coords

g Tun_wall_bend
usemtl default
s 1
f 1/1/1 2/2/2 3/3/3 4/4/4 
f 4/4/4 3/3/3 5/5/5 6/6/6 
f 6/6/6 5/5/5 7/7/7 8/8/8 
f 8/8/8 7/7/7 9/9/9 10/10/10 
f 11/11/11 12/12/12 13/13/13 14/14/14 
f 14/14/14 13/13/13 15/15/15 16/16/16 
f 16/16/16 15/15/15 17/17/17 18/18/18 
f 18/18/18 17/17/17 19/19/19 20/20/20 
f 2/21/21 1/22/21 12/23/21 11/24/21 
f 21/25/22 22/26/22 23/27/22 24/28/22 
f 25/29/23 26/30/23 27/31/23 28/32/23 
f 21/25/22 24/28/22 29/33/22 30/34/22 
f 25/32/23 31/35/23 32/36/23 26/31/23 
f 30/34/22 29/33/22 33/37/22 34/38/22 
f 35/39/23 36/40/23 32/36/23 31/35/23 
f 34/38/22 33/37/22 37/41/22 38/42/22 
f 10/43/24 9/44/25 20/45/25 19/46/24 
f 35/39/23 39/47/23 40/48/23 36/40/23 
f 41/49/26 22/50/27 21/51/28 42/52/29 
f 2/2/2 41/49/26 42/52/29 3/3/3 
f 43/53/30 25/54/31 28/55/32 44/56/33 
f 4/4/4 43/53/30 44/56/33 1/1/1 
f 42/52/29 21/51/28 30/57/34 45/58/35 
f 3/3/3 42/52/29 45/58/35 5/5/5 
f 46/59/36 31/60/37 25/54/31 43/53/30 
f 6/6/6 46/59/36 43/53/30 4/4/4 
f 45/58/35 30/57/34 34/61/38 47/62/39 
f 7/7/7 5/5/5 45/58/35 47/62/39 
f 48/63/40 35/64/41 31/60/37 46/59/36 
f 8/8/8 48/63/40 46/59/36 6/6/6 
f 47/62/39 34/61/38 38/65/42 49/66/43 
f 7/7/7 47/62/39 49/66/43 9/9/9 
f 50/67/44 39/68/45 35/64/41 48/63/40 
f 10/10/10 50/67/44 48/63/40 8/8/8 
f 51/69/46 27/70/47 26/71/48 52/72/49 
f 12/12/12 51/69/46 52/72/49 13/13/13 
f 53/73/50 24/74/51 23/75/52 54/76/53 
f 14/14/14 53/73/50 54/76/53 11/11/11 
f 52/72/49 26/71/48 32/77/54 55/78/55 
f 13/13/13 52/72/49 55/78/55 15/15/15 
f 56/79/56 29/80/57 24/74/51 53/73/50 
f 16/16/16 56/79/56 53/73/50 14/14/14 
f 55/78/55 32/77/54 36/81/58 57/82/59 
f 17/17/17 15/15/15 55/78/55 57/82/59 
f 56/79/56 58/83/60 33/84/61 29/80/57 
f 18/18/18 58/83/60 56/79/56 16/16/16 
f 57/82/59 36/81/58 40/85/62 59/86/63 
f 17/17/17 57/82/59 59/86/63 19/19/19 
f 60/87/64 37/88/65 33/84/61 58/83/60 
f 20/20/20 60/87/64 58/83/60 18/18/18 
f 44/89/21 28/90/21 27/91/21 51/92/21 
f 1/22/21 44/89/21 51/92/21 12/23/21 
f 54/93/21 23/94/21 22/95/21 41/96/21 
f 11/24/21 54/93/21 41/96/21 2/21/21 
f 49/97/66 38/98/67 37/99/67 60/100/66 
f 9/44/25 49/97/66 60/100/66 20/45/25 
f 59/101/68 40/102/69 39/103/69 50/104/68 
f 19/46/24 59/101/68 50/104/68 10/43/24 
# 58 polygons

