# 3ds Max Wavefront OBJ Exporter v0.97b - (c)2007 guruware
# File Created: 02.08.2015 22:14:01

mtllib Tun_Wall.mtl

#
# object Tun_wall
#

v  39.0988 -200.0130 -0.0013
v  39.1232 -200.0131 177.2848
v  39.1232 0.0007 177.2866
v  39.0988 0.0007 0.0006
v  26.8477 -200.0131 203.1224
v  26.8480 0.0007 203.1237
v  6.5802 -200.0131 222.1725
v  6.5808 0.0007 222.1740
v  -43.8087 -200.0131 245.7935
v  -43.8087 0.0007 245.7955
v  43.8087 -200.0130 -0.0013
v  43.8087 0.0007 0.0006
v  43.7180 0.0007 178.3220
v  43.7181 -200.0131 178.3195
v  30.6547 0.0007 205.8975
v  30.6560 -200.0131 205.8938
v  9.2272 0.0007 226.0703
v  9.2295 -200.0131 226.0668
v  -41.8085 0.0007 250.0597
v  -41.8085 -200.0131 250.0578
# 20 vertices

vn -1.0000 0.0000 0.0001
vn -0.9756 0.0000 -0.2198
vn -0.8081 0.0000 -0.5890
vn -0.5619 0.0000 -0.8272
vn -0.4251 0.0000 -0.9051
vn 1.0000 0.0000 0.0005
vn 0.9756 0.0000 0.2198
vn 0.8082 0.0000 0.5889
vn 0.5623 0.0000 0.8269
vn 0.4254 0.0000 0.9050
vn 0.0000 0.0000 -1.0000
vn 0.0000 -1.0000 0.0000
vn 0.0000 1.0000 0.0000
vn -0.9056 0.0000 0.4242
# 14 vertex normals

vt 0.6993 0.0059 0.0000
vt 0.6993 0.6115 0.0000
vt 0.0424 0.6115 0.0000
vt 0.0424 0.0059 0.0000
vt 0.6993 0.7050 0.0000
vt 0.0424 0.7050 0.0000
vt 0.6993 0.8006 0.0000
vt 0.0424 0.8006 0.0000
vt 0.6993 0.9925 0.0000
vt 0.0424 0.9925 0.0000
vt 0.0423 0.0060 0.0000
vt 0.6992 0.0060 0.0000
vt 0.6992 0.6117 0.0000
vt 0.0423 0.6117 0.0000
vt 0.6992 0.7050 0.0000
vt 0.0423 0.7050 0.0000
vt 0.6992 0.8006 0.0000
vt 0.0423 0.8006 0.0000
vt 0.6992 0.9925 0.0000
vt 0.0423 0.9925 0.0000
vt 0.9761 0.8630 0.0000
vt 0.9666 0.8630 0.0000
vt 0.9666 0.4583 0.0000
vt 0.9761 0.4583 0.0000
vt 0.8177 0.9608 0.0000
vt 0.8174 0.6021 0.0000
vt 0.8269 0.6021 0.0000
vt 0.8269 0.9629 0.0000
vt 0.8365 0.9608 0.0000
vt 0.8272 0.9629 0.0000
vt 0.8270 0.6021 0.0000
vt 0.8366 0.6021 0.0000
vt 0.9122 0.8221 0.0000
vt 0.9047 0.8279 0.0000
vt 0.8785 0.7720 0.0000
vt 0.8877 0.7697 0.0000
vt 0.8367 0.8221 0.0000
vt 0.8612 0.7697 0.0000
vt 0.8704 0.7720 0.0000
vt 0.8442 0.8279 0.0000
vt 0.8746 0.7126 0.0000
vt 0.8841 0.7135 0.0000
vt 0.8648 0.7135 0.0000
vt 0.8742 0.7126 0.0000
vt 0.9030 0.6021 0.0000
vt 0.9122 0.6045 0.0000
vt 0.7393 0.0019 0.0000
vt 0.7488 0.0019 0.0000
vt 0.7488 0.6587 0.0000
vt 0.7393 0.6587 0.0000
vt 0.8367 0.6045 0.0000
vt 0.8459 0.6021 0.0000
# 52 texture coords

g Tun_wall
usemtl default
s 1
f 1/1/1 2/2/2 3/3/2 4/4/1 
f 2/2/2 5/5/3 6/6/3 3/3/2 
f 5/5/3 7/7/4 8/8/4 6/6/3 
f 7/7/4 9/9/5 10/10/5 8/8/4 
f 11/11/6 12/12/6 13/13/7 14/14/7 
f 14/14/7 13/13/7 15/15/8 16/16/8 
f 16/16/8 15/15/8 17/17/9 18/18/9 
f 18/18/9 17/17/9 19/19/10 20/20/10 
f 4/21/11 12/22/11 11/23/11 1/24/11 
f 2/25/12 1/26/12 11/27/12 14/28/12 
f 3/29/13 13/30/13 12/31/13 4/32/13 
f 2/33/12 14/34/12 16/35/12 5/36/12 
f 3/37/13 6/38/13 15/39/13 13/40/13 
f 5/36/12 16/35/12 18/41/12 7/42/12 
f 8/43/13 17/44/13 15/39/13 6/38/13 
f 7/42/12 18/41/12 20/45/12 9/46/12 
f 9/47/14 20/48/14 19/49/14 10/50/14 
f 8/43/13 10/51/13 19/52/13 17/44/13 
# 18 polygons

