# This file uses centimeters as units for non-parametric coordinates.

v 88.706367 -7.096282 -12.100472
v 87.474106 -1.608435 -15.569199
v 89.732544 -2.395472 -30.028219
v 91.813911 -8.179535 -31.995657
v 88.781258 -3.062224 -12.312093
v 91.888817 -4.145164 -32.207291
v -96.722382 0.393298 -44.411575
v -98.626450 -5.178076 -41.415905
v -94.463936 -0.393739 -58.870598
v -95.501915 -6.267251 -61.419888
v -98.550430 -1.082326 -41.630703
v -95.425888 -2.171188 -61.634705
v -91.105812 -2.418189 -35.102322
v -92.132507 -8.027699 -38.392700
v -94.296692 -2.418189 -20.748156
v -96.510437 -8.029421 -18.698084
v -96.736916 -3.825579 -18.745552
v -92.358879 -3.825579 -38.440151
v 90.357155 8.104499 5.201787
v 92.957840 2.368889 2.705688
v 87.166283 8.104499 19.555958
v 88.558113 2.367159 22.498381
v 88.327461 6.649110 22.449974
v 92.727280 6.649110 2.657310
v 96.764565 -7.588788 15.825910
v 94.615547 -1.953636 13.125206
v 92.868546 -1.953636 -1.425781
v 94.360741 -7.589101 -4.195834
v 96.763275 -3.548490 15.822353
v 94.359459 -3.548490 -4.199391
v -90.502289 -1.898004 35.387661
v -91.499931 -7.650571 38.478359
v -92.249283 -1.898004 20.836672
v -93.916908 -7.650884 18.347126
v -91.501244 -3.548490 38.474812
v -93.918213 -3.548490 18.343571
vt 0.976003 0.230004
vt 0.976003 0.333263
vt 0.963662 0.317228
vt 0.963662 0.245854
vt 0.040855 0.317228
vt 0.040855 0.245854
vt 0.976003 0.353755
vt 0.976003 0.454198
vt 0.031184 0.454198
vt 0.031184 0.353755
vt 0.031184 0.229573
vt 0.031184 0.333263
vt 0.010651 0.333263
vt 0.010651 0.229566
vt 0.031184 0.209815
vt 0.976003 0.209815
vt 0.995012 0.230044
vt 0.995012 0.333263
vt 0.976003 0.496523
vt 0.963662 0.511676
vt 0.040855 0.511676
vt 0.031184 0.495134
vt 0.963662 0.583050
vt 0.040855 0.583050
vt 0.031184 0.619577
vt 0.976003 0.619577
vt 0.976003 0.720021
vt 0.031184 0.720021
vt 0.031184 0.599085
vt 0.976003 0.599085
vt 0.031184 0.475638
vt 0.976003 0.475638
vt 0.995012 0.496531
vt 0.995012 0.599085
vt 0.010651 0.599085
vt 0.010651 0.495103
vt 0.976003 0.763704
vt 0.976003 0.866964
vt 0.963662 0.850929
vt 0.963662 0.779554
vt 0.040855 0.850929
vt 0.040855 0.779554
vt 0.976003 0.887455
vt 0.976003 0.987899
vt 0.031184 0.987899
vt 0.031184 0.887455
vt 0.031184 0.763273
vt 0.031184 0.866964
vt 0.010651 0.866964
vt 0.010651 0.763267
vt 0.031184 0.743516
vt 0.976003 0.743516
vt 0.995012 0.763745
vt 0.995012 0.866964
vn -0.980342 0.116210 -0.159451
vn -0.981124 0.109743 -0.159221
vn -0.011133 0.998453 0.054478
vn 0.023004 0.986158 -0.164203
vn 0.013374 0.997924 0.062993
vn 0.048982 0.984951 -0.165749
vn -0.018285 -0.998505 0.051510
vn -0.018285 -0.998505 0.051510
vn -0.018285 -0.998505 0.051510
vn -0.018285 -0.998505 0.051510
vn 0.151425 0.292214 -0.944289
vn 0.152391 0.264358 -0.952309
vn -0.136769 0.409799 0.901864
vn -0.134744 0.434355 0.890607
vn 0.987884 -0.010219 0.154860
vn 0.987884 -0.010219 0.154860
vn 0.978457 0.147131 0.144823
vn 0.980004 0.135519 0.145696
vn -0.153830 0.054603 0.986587
vn -0.153830 0.054603 0.986587
vn 0.154405 -0.054609 -0.986497
vn 0.154405 -0.054609 -0.986497
vn -0.987884 0.010214 -0.154859
vn -0.987884 0.010214 -0.154859
vn 0.184195 0.347889 -0.919264
vn -0.042411 0.992650 -0.113347
vn -0.021597 0.994202 -0.105337
vn 0.181070 0.370487 -0.911018
vn -0.087666 0.991998 0.090855
vn -0.065311 0.993679 0.091308
vn 0.053466 -0.998500 0.011798
vn 0.053466 -0.998500 0.011798
vn 0.053466 -0.998500 0.011798
vn 0.053466 -0.998500 0.011798
vn -0.223455 0.308298 0.924673
vn -0.223787 0.282690 0.932741
vn -0.970875 0.104034 -0.215822
vn -0.968805 0.122619 -0.215362
vn 0.958482 0.189511 0.213066
vn 0.960695 0.177362 0.213558
vn -0.217247 -0.000675 0.976117
vn -0.217247 -0.000675 0.976117
vn 0.216731 0.000646 -0.976231
vn 0.216731 0.000646 -0.976231
vn -0.974697 -0.054955 -0.216671
vn -0.974697 -0.054955 -0.216671
vn 0.974697 0.054953 0.216671
vn 0.974697 0.054953 0.216671
vn -0.987276 0.106001 0.118533
vn -0.987941 0.099517 0.118613
vn 0.000124 0.993948 0.109851
vn -0.026316 0.993557 -0.110236
vn 0.026024 0.993438 0.111371
vn -0.001728 0.992914 -0.118822
vn 0.000325 -1.000000 -0.000023
vn 0.000325 -1.000000 -0.000023
vn 0.000325 -1.000000 -0.000023
vn 0.000325 -1.000000 -0.000023
vn -0.111668 0.343172 -0.932611
vn -0.112804 0.315788 -0.942100
vn 0.111487 0.360245 0.926172
vn 0.110284 0.385380 0.916144
vn 0.992870 0.000210 -0.119204
vn 0.992870 0.000210 -0.119204
vn 0.980452 0.157664 -0.117713
vn 0.982223 0.146053 -0.117926
vn 0.119461 0.000904 0.992839
vn 0.119461 0.000904 0.992839
vn -0.118883 -0.000905 -0.992908
vn -0.118883 -0.000905 -0.992908
vn -0.992870 -0.000214 0.119205
vn -0.992870 -0.000214 0.119205
s 1
f 12/1/1 11/2/2 7/3/3 9/4/4
f 7/3/3 2/5/5 3/6/6 9/4/4
s off
f 8/7/7 10/8/8 4/9/9 1/10/10
s 1
f 12/1/11 9/4/4 3/6/6 6/11/12
f 5/12/13 2/5/5 7/3/3 11/2/14
f 1/13/15 4/14/16 6/11/17 5/12/18
f 8/7/19 1/10/20 5/12/13 11/2/14
f 12/1/11 6/11/12 4/15/21 10/16/22
f 5/12/18 6/11/17 3/6/6 2/5/5
f 10/17/23 8/18/24 11/2/2 12/1/1
s 2
f 18/19/25 13/20/26 19/21/27 24/22/28
f 19/21/27 13/20/26 15/23/29 21/24/30
s off
f 22/25/31 16/26/32 14/27/33 20/28/34
s 2
f 23/29/35 21/24/30 15/23/29 17/30/36
f 18/19/37 17/30/38 15/23/29 13/20/26
f 23/29/39 24/22/40 19/21/27 21/24/30
f 16/26/41 22/25/42 23/29/35 17/30/36
f 20/31/43 14/32/44 18/19/25 24/22/28
f 14/33/45 16/34/46 17/30/38 18/19/37
f 22/35/47 20/36/48 24/22/40 23/29/39
s 3
f 36/37/49 35/38/50 31/39/51 33/40/52
f 31/39/51 26/41/53 27/42/54 33/40/52
s off
f 32/43/55 34/44/56 28/45/57 25/46/58
s 3
f 36/37/59 33/40/52 27/42/54 30/47/60
f 29/48/61 26/41/53 31/39/51 35/38/62
f 25/49/63 28/50/64 30/47/65 29/48/66
f 32/43/67 25/46/68 29/48/61 35/38/62
f 36/37/59 30/47/60 28/51/69 34/52/70
f 29/48/66 30/47/65 27/42/54 26/41/53
f 34/53/71 32/54/72 35/38/50 36/37/49
