# 3ds Max Wavefront OBJ Exporter v0.97b - (c)2007 guruware
# File Created: 03.08.2015 10:07:45

#
# object Plane001
#

v  -501.0492 -59.3897 535.9210
v  -428.0333 -59.3941 535.9210
v  -428.0333 -59.3439 440.7876
v  -501.0492 -59.2787 440.7877
v  -340.4142 -59.5335 535.9210
v  -340.4142 -59.5071 440.7877
v  -252.7950 -62.4191 535.9210
v  -252.7950 -62.9933 440.7877
v  -165.1759 -68.5785 535.9210
v  -165.1759 -72.0596 440.7876
v  -77.5568 -68.2041 535.9210
v  -77.5568 -78.3094 440.7876
v  10.0623 -56.7305 535.9210
v  10.0623 -69.4939 440.7877
v  97.6815 -37.9446 535.9210
v  97.6815 -46.2629 440.7877
v  185.3006 -19.3821 535.9210
v  185.3006 -21.6361 440.7876
v  272.9197 -3.4034 535.9210
v  272.9197 -3.3881 440.7876
v  360.5388 11.8071 535.9210
v  360.5388 11.8356 440.7877
v  448.1580 23.0629 535.9210
v  448.1580 23.0683 440.7877
v  535.7771 41.4323 535.9210
v  535.7771 40.6593 440.7876
v  623.3962 51.6401 535.9210
v  623.3962 42.8448 440.7876
v  667.2058 25.6200 440.7877
v  667.2058 25.6200 535.9210
v  -428.0333 -55.0152 337.0058
v  -501.0492 -47.9727 337.0057
v  -340.4142 -59.3122 337.0058
v  -252.7950 -59.7781 337.0058
v  -165.1759 -60.2777 337.0058
v  -77.5568 -58.7545 337.0058
v  10.0623 -47.1268 337.0058
v  97.6815 -27.6113 337.0058
v  185.3006 -10.8723 337.0058
v  272.9197 2.5313 337.0058
v  360.5389 14.8222 337.0058
v  448.1580 23.7087 337.0058
v  535.7771 43.4391 337.0058
v  623.3962 25.6195 337.0058
v  667.2058 25.6200 337.0057
v  -428.0333 -55.7626 233.2239
v  -501.0492 -45.1739 233.2239
v  -340.4142 -61.1559 233.2239
v  -252.7950 -57.7587 233.2239
v  -165.1759 -49.7317 233.2239
v  -77.5568 -36.3835 233.2239
v  10.0623 -19.9370 233.2239
v  97.6815 -3.6178 233.2239
v  185.3006 9.7927 233.2239
v  272.9197 17.9851 233.2239
v  360.5388 22.6286 233.2239
v  448.1580 42.0738 233.2239
v  535.7771 43.1613 233.2239
v  623.3962 25.6200 233.2239
v  667.2058 25.6200 233.2239
v  -428.0333 -41.1332 129.4420
v  -501.0492 -41.6214 129.4420
v  -340.4142 -41.7500 129.4420
v  -252.7950 -40.7301 129.4420
v  -165.1759 -32.6444 129.4420
v  -77.5568 -17.5176 129.4420
v  10.0623 -3.0994 129.4420
v  97.6815 8.5880 129.4420
v  185.3006 20.0021 129.4420
v  272.9197 24.8706 129.4420
v  360.5389 42.5464 129.4420
v  448.1580 42.5670 129.4420
v  535.7771 43.1613 129.4420
v  623.3962 25.6200 129.4420
v  667.2058 25.6200 129.4420
v  -428.0333 21.6441 25.6601
v  -501.0492 16.6734 25.6601
v  -340.4141 25.3341 25.6601
v  -252.7950 25.6312 25.6601
v  -165.1759 25.8107 25.6601
v  -77.5568 33.5890 25.6601
v  10.0623 42.9952 25.6601
v  97.6815 48.4551 25.6601
v  185.3006 44.9779 25.6601
v  272.9197 42.5988 25.6601
v  360.5388 42.6347 25.6601
v  448.1580 42.6363 25.6601
v  535.7771 42.6363 25.6601
v  623.3962 42.6363 25.6601
v  667.2057 42.6363 25.6601
v  -428.0333 39.3673 -78.1217
v  -501.0492 36.4375 -78.1217
v  -340.4141 41.5404 -78.1217
v  -252.7950 41.8140 -78.1217
v  -165.1759 41.3822 -78.1217
v  -77.5568 42.3974 -78.1217
v  10.0623 43.4391 -78.1217
v  97.6815 43.5681 -78.1217
v  185.3006 43.5732 -78.1217
v  272.9197 43.5736 -78.1217
v  360.5389 43.5736 -78.1217
v  448.1580 43.5736 -78.1217
v  535.7771 43.5736 -78.1217
v  623.3962 43.5736 -78.1217
v  667.2058 43.5736 -78.1217
v  -501.0492 40.5837 -117.0399
v  -428.0333 42.0486 -117.0399
v  -428.0333 25.6200 -155.9581
v  -501.0492 25.6200 -155.9581
v  -340.4141 43.1351 -117.0399
v  -340.4142 25.6200 -155.9581
v  -252.7950 43.2719 -117.0399
v  -252.7950 25.6200 -155.9581
v  -165.1759 43.0560 -117.0399
v  -165.1759 25.6200 -155.9581
v  -77.5568 43.5636 -117.0399
v  -77.5568 25.6200 -155.9581
v  10.0623 44.0845 -117.0399
v  10.0623 25.6200 -155.9581
v  97.6815 44.1490 -117.0399
v  97.6815 25.6200 -155.9581
v  185.3006 44.1515 -117.0399
v  185.3006 25.6200 -155.9581
v  272.9197 44.1517 -117.0399
v  272.9197 25.6200 -155.9581
v  360.5389 44.1517 -117.0399
v  360.5388 25.6200 -155.9581
v  448.1580 44.1517 -117.0399
v  448.1580 25.6200 -155.9581
v  535.7771 44.1517 -117.0399
v  535.7771 25.6200 -155.9581
v  623.3962 44.1517 -117.0399
v  623.3962 25.6200 -155.9581
v  667.2058 44.1517 -117.0399
v  667.2058 25.6200 -155.9581
# 135 vertices

vn 0.0004 1.0000 0.0008
vn 0.0008 1.0000 0.0005
vn 0.0013 0.9998 0.0212
vn 0.0194 0.9992 0.0344
vn 0.0173 0.9998 0.0003
vn 0.0253 0.9997 0.0058
vn 0.0531 0.9986 -0.0044
vn 0.0637 0.9980 0.0044
vn 0.0408 0.9988 -0.0285
vn 0.0673 0.9976 0.0178
vn -0.0494 0.9949 -0.0874
vn -0.0276 0.9993 0.0262
vn -0.1623 0.9789 -0.1242
vn -0.1750 0.9837 0.0403
vn -0.2186 0.9710 -0.0965
vn -0.2510 0.9664 0.0563
vn -0.2086 0.9772 -0.0391
vn -0.2250 0.9730 0.0521
vn -0.1811 0.9834 -0.0059
vn -0.1816 0.9828 0.0345
vn -0.1493 0.9888 0.0003
vn -0.1456 0.9892 0.0182
vn -0.1664 0.9861 0.0001
vn -0.1602 0.9871 0.0051
vn -0.1586 0.9873 -0.0059
vn -0.1248 0.9922 -0.0046
vn 0.2030 0.9784 -0.0383
vn 0.1754 0.9819 -0.0710
vn 0.3890 0.9207 -0.0296
vn 0.5107 0.8598 -0.0000
vn 0.0580 0.9981 0.0220
vn 0.1053 0.9928 0.0568
vn 0.0324 0.9995 -0.0025
vn 0.0115 0.9994 0.0314
vn -0.0069 0.9944 0.1059
vn -0.0843 0.9790 0.1856
vn -0.1806 0.9592 0.2175
vn -0.2046 0.9600 0.1910
vn -0.1697 0.9747 0.1454
vn -0.1415 0.9844 0.1042
vn -0.1131 0.9918 0.0586
vn -0.1700 0.9824 0.0777
vn -0.0121 0.9999 0.0101
vn 0.0990 0.9917 -0.0817
vn 0.0497 0.9969 -0.0614
vn 0.0960 0.9929 0.0696
vn 0.1142 0.9915 0.0627
vn 0.0104 0.9966 0.0822
vn -0.0508 0.9932 0.1051
vn -0.1049 0.9837 0.1464
vn -0.1607 0.9673 0.1962
vn -0.1813 0.9624 0.2021
vn -0.1630 0.9718 0.1706
vn -0.1248 0.9821 0.1413
vn -0.0780 0.9918 0.1008
vn -0.1367 0.9825 0.1269
vn -0.1130 0.9896 0.0893
vn 0.0934 0.9956 -0.0003
vn 0.0986 0.9951 0.0000
vn -0.0000 1.0000 0.0000
vn 0.0212 0.9450 0.3264
vn -0.0159 0.9600 0.2794
vn -0.0093 0.9318 0.3629
vn -0.0475 0.9331 0.3564
vn -0.1129 0.9340 0.3389
vn -0.1525 0.9365 0.3158
vn -0.1417 0.9486 0.2831
vn -0.1222 0.9623 0.2428
vn -0.0772 0.9805 0.1807
vn -0.1002 0.9846 0.1430
vn -0.1004 0.9907 0.0914
vn -0.0041 1.0000 0.0021
vn 0.0960 0.9954 -0.0017
vn 0.0767 0.9953 0.0583
vn -0.0000 0.9967 0.0812
vn -0.0427 0.9366 0.3479
vn -0.0586 0.9389 0.3391
vn -0.0199 0.9340 0.3566
vn -0.0104 0.9381 0.3461
vn -0.0503 0.9465 0.3189
vn -0.0910 0.9586 0.2698
vn -0.0786 0.9742 0.2117
vn -0.0216 0.9889 0.1470
vn 0.0199 0.9951 0.0972
vn -0.0120 0.9980 0.0628
vn -0.0002 1.0000 0.0050
vn -0.0008 1.0000 0.0041
vn 0.0222 0.9994 0.0253
vn 0.0000 0.9963 0.0857
vn -0.0345 0.9925 0.1176
vn -0.0329 0.9895 0.1409
vn -0.0136 0.9951 0.0975
vn -0.0003 0.9954 0.0955
vn -0.0108 0.9962 0.0861
vn -0.0213 0.9987 0.0453
vn -0.0133 0.9999 0.0032
vn 0.0037 0.9999 -0.0114
vn 0.0030 1.0000 0.0038
vn -0.0000 0.9999 0.0121
vn -0.0000 0.9999 0.0119
vn 0.0000 0.9999 0.0119
vn -0.0134 0.9906 -0.1359
vn -0.0174 0.9864 -0.1633
vn -0.0062 0.9233 -0.3840
vn 0.0000 0.9334 -0.3589
vn -0.0092 0.9822 -0.1878
vn -0.0045 0.9131 -0.4077
vn -0.0000 0.9814 -0.1922
vn 0.0000 0.9107 -0.4131
vn -0.0002 0.9819 -0.1892
vn 0.0008 0.9123 -0.4095
vn -0.0059 0.9799 -0.1996
vn -0.0019 0.9088 -0.4173
vn -0.0044 0.9776 -0.2106
vn -0.0021 0.9041 -0.4274
vn -0.0004 0.9771 -0.2129
vn 0.0000 0.9029 -0.4299
vn -0.0000 0.9770 -0.2131
vn -0.0000 0.9029 -0.4299
vn 0.0000 0.9770 -0.2131
# 120 vertex normals

vt 0.0020 0.0020 -0.1986
vt 0.0643 0.0020 -0.1986
vt 0.0643 0.1384 -0.1983
vt 0.0020 0.1384 -0.1986
vt 0.1389 0.0020 -0.1989
vt 0.1389 0.1384 -0.1993
vt 0.2137 0.0020 -0.2168
vt 0.2137 0.1384 -0.2202
vt 0.2883 0.0020 -0.2538
vt 0.2883 0.1384 -0.2747
vt 0.3630 0.0020 -0.2534
vt 0.3630 0.1384 -0.3123
vt 0.4377 0.0020 -0.1836
vt 0.4377 0.1384 -0.2593
vt 0.5124 0.0020 -0.0697
vt 0.5124 0.1384 -0.1197
vt 0.5871 0.0020 0.0418
vt 0.5871 0.1384 0.0283
vt 0.6618 0.0020 0.1380
vt 0.6618 0.1384 0.1380
vt 0.7365 0.0020 0.2302
vt 0.7365 0.1384 0.2294
vt 0.8112 0.0020 0.2969
vt 0.8112 0.1384 0.2969
vt 0.8859 0.0020 0.3119
vt 0.8859 0.1384 0.3119
vt 0.9606 0.0020 0.3123
vt 0.9606 0.1384 0.3123
vt 0.9980 0.1384 0.3123
vt 0.9980 0.0020 0.3123
vt 0.0643 0.2873 -0.1723
vt 0.0020 0.2873 -0.1300
vt 0.1390 0.2873 -0.1981
vt 0.2137 0.2873 -0.2009
vt 0.2883 0.2873 -0.2039
vt 0.3630 0.2873 -0.1948
vt 0.4377 0.2873 -0.1249
vt 0.5124 0.2873 -0.0076
vt 0.5871 0.2873 0.0930
vt 0.6618 0.2873 0.1735
vt 0.7365 0.2873 0.2474
vt 0.8112 0.2873 0.3008
vt 0.8859 0.2873 0.3122
vt 0.9606 0.2873 0.3123
vt 0.9980 0.2873 0.3123
vt 0.0643 0.4361 -0.1768
vt 0.0020 0.4361 -0.1134
vt 0.1390 0.4361 -0.2092
vt 0.2137 0.4361 -0.1888
vt 0.2884 0.4361 -0.1405
vt 0.3631 0.4361 -0.0603
vt 0.4378 0.4361 0.0385
vt 0.5124 0.4361 0.1366
vt 0.5871 0.4361 0.2172
vt 0.6618 0.4361 0.2664
vt 0.7365 0.4361 0.2943
vt 0.8112 0.4361 0.3093
vt 0.8859 0.4361 0.3123
vt 0.9606 0.4361 0.3123
vt 0.9980 0.4361 0.3123
vt 0.0643 0.5850 -0.0889
vt 0.0020 0.5850 -0.0918
vt 0.1390 0.5850 -0.0926
vt 0.2137 0.5850 -0.0864
vt 0.2884 0.5850 -0.0379
vt 0.3631 0.5850 0.0530
vt 0.4378 0.5850 0.1397
vt 0.5125 0.5850 0.2099
vt 0.5871 0.5850 0.2785
vt 0.6618 0.5850 0.3078
vt 0.7365 0.5850 0.3119
vt 0.8112 0.5850 0.3123
vt 0.8859 0.5850 0.3123
vt 0.9606 0.5850 0.3123
vt 0.9980 0.5850 0.3123
vt 0.0643 0.7338 0.1329
vt 0.0020 0.7338 0.1033
vt 0.1390 0.7338 0.1550
vt 0.2137 0.7338 0.1568
vt 0.2884 0.7338 0.1579
vt 0.3631 0.7338 0.2046
vt 0.4378 0.7338 0.2612
vt 0.5125 0.7338 0.2940
vt 0.5871 0.7338 0.3083
vt 0.6618 0.7338 0.3120
vt 0.7365 0.7338 0.3123
vt 0.8112 0.7338 0.3123
vt 0.8859 0.7338 0.3123
vt 0.9606 0.7338 0.3123
vt 0.9980 0.7338 0.3123
vt 0.0643 0.8826 0.2870
vt 0.0020 0.8826 0.2694
vt 0.1390 0.8826 0.3001
vt 0.2137 0.8826 0.3017
vt 0.2884 0.8826 0.2991
vt 0.3631 0.8826 0.3052
vt 0.4378 0.8826 0.3115
vt 0.5125 0.8826 0.3122
vt 0.5871 0.8826 0.3123
vt 0.6618 0.8826 0.3123
vt 0.7365 0.8826 0.3123
vt 0.8112 0.8826 0.3123
vt 0.8859 0.8826 0.3123
vt 0.9606 0.8826 0.3123
vt 0.9980 0.8826 0.3123
vt 0.0020 0.9385 0.2908
vt 0.0643 0.9385 0.2996
vt 0.0643 0.9943 0.3123
vt 0.0020 0.9943 0.3123
vt 0.1390 0.9385 0.3062
vt 0.1390 0.9943 0.3123
vt 0.2137 0.9385 0.3070
vt 0.2137 0.9943 0.3123
vt 0.2884 0.9385 0.3057
vt 0.2884 0.9943 0.3123
vt 0.3631 0.9385 0.3087
vt 0.3631 0.9943 0.3123
vt 0.4378 0.9385 0.3119
vt 0.4378 0.9943 0.3123
vt 0.5125 0.9385 0.3123
vt 0.5125 0.9943 0.3123
vt 0.5871 0.9385 0.3123
vt 0.5871 0.9943 0.3123
vt 0.6618 0.9385 0.3123
vt 0.6618 0.9943 0.3123
vt 0.7365 0.9385 0.3123
vt 0.7365 0.9943 0.3123
vt 0.8112 0.9385 0.3123
vt 0.8112 0.9943 0.3123
vt 0.8859 0.9385 0.3123
vt 0.8859 0.9943 0.3123
vt 0.9606 0.9385 0.3123
vt 0.9606 0.9943 0.3123
vt 0.9980 0.9385 0.3123
vt 0.9980 0.9943 0.3123
# 135 texture coords

g Plane001
s 2
f 1/1/1 2/2/2 3/3/3 4/4/4 
f 3/3/3 2/2/2 5/5/5 6/6/6 
f 6/6/6 5/5/5 7/7/7 8/8/8 
f 9/9/9 10/10/10 8/8/8 7/7/7 
f 10/10/10 9/9/9 11/11/11 12/12/12 
f 12/12/12 11/11/11 13/13/13 14/14/14 
f 14/14/14 13/13/13 15/15/15 16/16/16 
f 17/17/17 18/18/18 16/16/16 15/15/15 
f 18/18/18 17/17/17 19/19/19 20/20/20 
f 20/20/20 19/19/19 21/21/21 22/22/22 
f 22/22/22 21/21/21 23/23/23 24/24/24 
f 25/25/25 26/26/26 24/24/24 23/23/23 
f 26/26/26 25/25/25 27/27/27 28/28/28 
f 29/29/29 28/28/28 27/27/27 30/30/30 
f 4/4/4 3/3/3 31/31/31 32/32/32 
f 6/6/6 33/33/33 31/31/31 3/3/3 
f 33/33/33 6/6/6 8/8/8 34/34/34 
f 10/10/10 35/35/35 34/34/34 8/8/8 
f 12/12/12 36/36/36 35/35/35 10/10/10 
f 14/14/14 37/37/37 36/36/36 12/12/12 
f 37/37/37 14/14/14 16/16/16 38/38/38 
f 18/18/18 39/39/39 38/38/38 16/16/16 
f 20/20/20 40/40/40 39/39/39 18/18/18 
f 22/22/22 41/41/41 40/40/40 20/20/20 
f 41/41/41 22/22/22 24/24/24 42/42/42 
f 26/26/26 43/43/43 42/42/42 24/24/24 
f 28/28/28 44/44/44 43/43/43 26/26/26 
f 45/45/45 44/44/44 28/28/28 29/29/29 
f 32/32/32 31/31/31 46/46/46 47/47/47 
f 46/46/46 31/31/31 33/33/33 48/48/48 
f 48/48/48 33/33/33 34/34/34 49/49/49 
f 35/35/35 50/50/50 49/49/49 34/34/34 
f 50/50/50 35/35/35 36/36/36 51/51/51 
f 51/51/51 36/36/36 37/37/37 52/52/52 
f 52/52/52 37/37/37 38/38/38 53/53/53 
f 39/39/39 54/54/54 53/53/53 38/38/38 
f 54/54/54 39/39/39 40/40/40 55/55/55 
f 55/55/55 40/40/40 41/41/41 56/56/56 
f 56/56/56 41/41/41 42/42/42 57/57/57 
f 43/43/43 58/58/58 57/57/57 42/42/42 
f 58/58/58 43/43/43 44/44/44 59/59/59 
f 60/60/60 59/59/59 44/44/44 45/45/45 
f 47/47/47 46/46/46 61/61/61 62/62/62 
f 48/48/48 63/63/63 61/61/61 46/46/46 
f 63/63/63 48/48/48 49/49/49 64/64/64 
f 50/50/50 65/65/65 64/64/64 49/49/49 
f 51/51/51 66/66/66 65/65/65 50/50/50 
f 52/52/52 67/67/67 66/66/66 51/51/51 
f 67/67/67 52/52/52 53/53/53 68/68/68 
f 54/54/54 69/69/69 68/68/68 53/53/53 
f 55/55/55 70/70/70 69/69/69 54/54/54 
f 56/56/56 71/71/71 70/70/70 55/55/55 
f 71/71/71 56/56/56 57/57/57 72/72/72 
f 58/58/58 73/73/73 72/72/72 57/57/57 
f 59/59/59 74/74/74 73/73/73 58/58/58 
f 75/75/75 74/74/74 59/59/59 60/60/60 
f 62/62/62 61/61/61 76/76/76 77/77/77 
f 76/76/76 61/61/61 63/63/63 78/78/78 
f 78/78/78 63/63/63 64/64/64 79/79/79 
f 65/65/65 80/80/80 79/79/79 64/64/64 
f 80/80/80 65/65/65 66/66/66 81/81/81 
f 81/81/81 66/66/66 67/67/67 82/82/82 
f 82/82/82 67/67/67 68/68/68 83/83/83 
f 69/69/69 84/84/84 83/83/83 68/68/68 
f 84/84/84 69/69/69 70/70/70 85/85/85 
f 85/85/85 70/70/70 71/71/71 86/86/86 
f 86/86/86 71/71/71 72/72/72 87/87/87 
f 73/73/73 88/88/88 87/87/87 72/72/72 
f 88/88/88 73/73/73 74/74/74 89/89/89 
f 90/90/89 89/89/89 74/74/74 75/75/75 
f 77/77/77 76/76/76 91/91/90 92/92/91 
f 78/78/78 93/93/92 91/91/90 76/76/76 
f 93/93/92 78/78/78 79/79/79 94/94/93 
f 80/80/80 95/95/94 94/94/93 79/79/79 
f 81/81/81 96/96/95 95/95/94 80/80/80 
f 82/82/82 97/97/96 96/96/95 81/81/81 
f 97/97/96 82/82/82 83/83/83 98/98/97 
f 84/84/84 99/99/98 98/98/97 83/83/83 
f 85/85/85 100/100/99 99/99/98 84/84/84 
f 86/86/86 101/101/100 100/100/99 85/85/85 
f 101/101/100 86/86/86 87/87/87 102/102/101 
f 88/88/88 103/103/101 102/102/101 87/87/87 
f 89/89/89 104/104/101 103/103/101 88/88/88 
f 105/105/101 104/104/101 89/89/89 90/90/89 
f 106/106/102 107/107/103 108/108/104 109/109/105 
f 107/107/103 110/110/106 111/111/107 108/108/104 
f 111/111/107 110/110/106 112/112/108 113/113/109 
f 112/112/108 114/114/110 115/115/111 113/113/109 
f 114/114/110 116/116/112 117/117/113 115/115/111 
f 116/116/112 118/118/114 119/119/115 117/117/113 
f 119/119/115 118/118/114 120/120/116 121/121/117 
f 120/120/116 122/122/118 123/123/119 121/121/117 
f 122/122/118 124/124/118 125/125/119 123/123/119 
f 124/124/118 126/126/118 127/127/119 125/125/119 
f 127/127/119 126/126/118 128/128/120 129/129/117 
f 128/128/120 130/130/120 131/131/117 129/129/117 
f 130/130/120 132/132/120 133/133/117 131/131/117 
f 133/133/117 132/132/120 134/134/120 135/135/117 
f 92/92/91 91/91/90 107/107/103 106/106/102 
f 91/91/90 93/93/92 110/110/106 107/107/103 
f 93/93/92 94/94/93 112/112/108 110/110/106 
f 94/94/93 95/95/94 114/114/110 112/112/108 
f 95/95/94 96/96/95 116/116/112 114/114/110 
f 96/96/95 97/97/96 118/118/114 116/116/112 
f 97/97/96 98/98/97 120/120/116 118/118/114 
f 98/98/97 99/99/98 122/122/118 120/120/116 
f 99/99/98 100/100/99 124/124/118 122/122/118 
f 100/100/99 101/101/100 126/126/118 124/124/118 
f 101/101/100 102/102/101 128/128/120 126/126/118 
f 102/102/101 103/103/101 130/130/120 128/128/120 
f 103/103/101 104/104/101 132/132/120 130/130/120 
f 104/104/101 105/105/101 134/134/120 132/132/120 
# 112 polygons

