# 3ds Max Wavefront OBJ Exporter v0.97b - (c)2007 guruware
# File Created: 24.07.2015 15:48:45

mtllib LakeSide_GrassLand_COL.mtl

#
# object Plane001
#

v  -1797.6611 -284.6727 1329.2510
v  -1552.2765 -284.6876 1329.2510
v  -1552.2765 -284.5187 1009.5361
v  -1797.6611 -284.2996 1009.5362
v  -1257.8148 -285.1560 1329.2510
v  -1257.8148 -285.0674 1009.5362
v  -963.3533 -294.8536 1329.2510
v  -963.3533 -296.7833 1009.5362
v  -668.8916 -315.5534 1329.2510
v  -668.8916 -327.2523 1009.5361
v  -374.4301 -314.2952 1329.2510
v  -374.4301 -348.2560 1009.5361
v  -79.9684 -275.7358 1329.2510
v  -79.9684 -318.6299 1009.5362
v  214.4932 -212.6022 1329.2510
v  214.4932 -240.5576 1009.5362
v  508.9548 -150.2191 1329.2510
v  508.9548 -157.7941 1009.5361
v  803.4164 -96.5194 1329.2510
v  803.4164 -96.4681 1009.5361
v  1097.8781 -45.4017 1329.2510
v  1097.8781 -45.3057 1009.5362
v  1392.3397 -7.5743 1329.2510
v  1392.3396 -7.5563 1009.5362
v  1686.8013 0.8144 1329.2510
v  1686.8013 0.8160 1009.5361
v  1981.2628 1.0124 1329.2510
v  1981.2629 1.0125 1009.5361
v  2128.4937 1.0192 1009.5362
v  2128.4937 1.0192 1329.2510
v  -1552.2762 -269.9712 660.7565
v  -1797.6611 -246.3035 660.7563
v  -1257.8148 -284.4124 660.7565
v  -963.3533 -285.9780 660.7565
v  -668.8916 -287.6570 660.7565
v  -374.4301 -282.5378 660.7565
v  -79.9684 -243.4606 660.7565
v  214.4932 -177.8749 660.7565
v  508.9548 -121.6203 660.7565
v  803.4164 -76.5750 660.7565
v  1097.8782 -35.2688 660.7565
v  1392.3397 -5.4040 660.7565
v  1686.8013 0.9690 660.7565
v  1981.2629 1.0176 660.7565
v  2128.4937 1.0192 660.7563
v  -1552.2765 -272.4832 311.9767
v  -1797.6611 -236.8978 311.9767
v  -1257.8148 -290.6082 311.9767
v  -963.3533 -279.1913 311.9767
v  -668.8916 -252.2150 311.9767
v  -374.4301 -207.3557 311.9767
v  -79.9684 -152.0840 311.9767
v  214.4932 -97.2399 311.9767
v  508.9548 -52.1713 311.9767
v  803.4164 -24.6392 311.9767
v  1097.8781 -9.0338 311.9767
v  1392.3396 -0.6464 311.9767
v  1686.8013 1.0191 311.9767
v  1981.2629 1.0192 311.9767
v  2128.4937 1.0192 311.9767
v  -1552.2762 -223.3181 -36.8031
v  -1797.6611 -224.9588 -36.8031
v  -1257.8148 -225.3908 -36.8031
v  -963.3533 -221.9635 -36.8031
v  -668.8916 -194.7898 -36.8031
v  -374.4301 -143.9530 -36.8031
v  -79.9684 -95.4978 -36.8031
v  214.4932 -56.2200 -36.8031
v  508.9548 -17.8607 -36.8031
v  803.4164 -1.4991 -36.8031
v  1097.8782 0.7855 -36.8031
v  1392.3397 1.0109 -36.8031
v  1686.8013 1.0192 -36.8031
v  1981.2629 1.0192 -36.8031
v  2128.4937 1.0192 -36.8031
v  -1552.2765 -99.3199 -385.5828
v  -1797.6611 -116.0249 -385.5828
v  -1257.8148 -86.9188 -385.5828
v  -963.3533 -85.9206 -385.5828
v  -668.8916 -85.3172 -385.5828
v  -374.4301 -59.1766 -385.5828
v  -79.9684 -27.5651 -385.5828
v  214.4932 -9.2163 -385.5828
v  508.9548 -1.2212 -385.5828
v  803.4164 0.8932 -385.5828
v  1097.8781 1.0139 -385.5828
v  1392.3396 1.0192 -385.5828
v  1686.8013 1.0192 -385.5828
v  1981.2629 1.0192 -385.5828
v  2128.4937 1.0192 -385.5828
v  -1552.2762 -13.1170 -734.3625
v  -1797.6611 -22.9630 -734.3627
v  -1257.8148 -5.8139 -734.3625
v  -963.3533 -4.8942 -734.3625
v  -668.8916 -6.3456 -734.3625
v  -374.4301 -2.9336 -734.3625
v  -79.9684 0.5671 -734.3625
v  214.4932 1.0007 -734.3625
v  508.9548 1.0177 -734.3625
v  803.4164 1.0192 -734.3625
v  1097.8782 1.0192 -734.3625
v  1392.3397 1.0192 -734.3625
v  1686.8013 1.0192 -734.3625
v  1981.2629 1.0192 -734.3625
v  2128.4937 1.0192 -734.3627
v  -1797.6611 1.0192 -995.9474
v  -1552.2765 1.0192 -995.9474
v  -1257.8148 1.0192 -995.9474
v  -963.3533 1.0192 -995.9474
v  -668.8916 1.0192 -995.9474
v  -374.4301 1.0192 -995.9474
v  -79.9684 1.0192 -995.9474
v  214.4932 1.0192 -995.9474
v  508.9548 1.0192 -995.9474
v  803.4164 1.0192 -995.9474
v  1097.8781 1.0192 -995.9474
v  1392.3397 1.0192 -995.9474
v  1686.8013 1.0192 -995.9474
v  1981.2628 1.0192 -995.9474
v  2128.4937 1.0192 -995.9474
# 120 vertices

vn 0.0004 1.0000 0.0008
vn 0.0008 1.0000 0.0005
vn 0.0013 0.9998 0.0212
vn 0.0194 0.9992 0.0344
vn 0.0173 0.9998 0.0003
vn 0.0253 0.9997 0.0058
vn 0.0531 0.9986 -0.0044
vn 0.0637 0.9980 0.0044
vn 0.0408 0.9988 -0.0285
vn 0.0673 0.9976 0.0178
vn -0.0494 0.9949 -0.0874
vn -0.0276 0.9993 0.0262
vn -0.1623 0.9789 -0.1242
vn -0.1750 0.9837 0.0403
vn -0.2186 0.9710 -0.0965
vn -0.2510 0.9664 0.0563
vn -0.2086 0.9772 -0.0391
vn -0.2250 0.9730 0.0521
vn -0.1811 0.9834 -0.0059
vn -0.1816 0.9828 0.0345
vn -0.1493 0.9888 0.0003
vn -0.1456 0.9892 0.0182
vn -0.0780 0.9970 0.0001
vn -0.0749 0.9972 0.0062
vn -0.0146 0.9999 0.0000
vn -0.0138 0.9999 0.0010
vn -0.0004 1.0000 0.0000
vn -0.0003 1.0000 0.0001
vn -0.0000 1.0000 0.0000
vn -0.0000 1.0000 -0.0000
vn 0.0580 0.9981 0.0220
vn 0.1053 0.9928 0.0568
vn 0.0324 0.9995 -0.0025
vn 0.0115 0.9994 0.0314
vn -0.0069 0.9944 0.1059
vn -0.0843 0.9790 0.1856
vn -0.1806 0.9592 0.2175
vn -0.2046 0.9600 0.1910
vn -0.1697 0.9747 0.1454
vn -0.1415 0.9844 0.1042
vn -0.1131 0.9918 0.0586
vn -0.0540 0.9984 0.0176
vn -0.0092 1.0000 0.0021
vn -0.0001 1.0000 0.0000
vn 0.0960 0.9929 0.0696
vn 0.1142 0.9915 0.0627
vn 0.0104 0.9966 0.0822
vn -0.0508 0.9932 0.1051
vn -0.1049 0.9837 0.1464
vn -0.1607 0.9673 0.1962
vn -0.1813 0.9624 0.2021
vn -0.1630 0.9718 0.1706
vn -0.1248 0.9821 0.1413
vn -0.0780 0.9918 0.1008
vn -0.0437 0.9979 0.0483
vn -0.0158 0.9998 0.0106
vn -0.0022 1.0000 0.0007
vn 0.0209 0.9732 0.2290
vn -0.0176 0.9836 0.1795
vn -0.0101 0.9629 0.2695
vn -0.0490 0.9633 0.2640
vn -0.1157 0.9635 0.2415
vn -0.1562 0.9648 0.2118
vn -0.1447 0.9740 0.1743
vn -0.1244 0.9837 0.1297
vn -0.0848 0.9932 0.0800
vn -0.0312 0.9988 0.0369
vn -0.0065 0.9999 0.0120
vn -0.0009 1.0000 0.0018
vn 0.0000 1.0000 0.0000
vn -0.0424 0.9570 0.2868
vn -0.0603 0.9603 0.2724
vn -0.0206 0.9539 0.2993
vn -0.0117 0.9580 0.2864
vn -0.0521 0.9663 0.2520
vn -0.0934 0.9755 0.1993
vn -0.0808 0.9871 0.1383
vn -0.0491 0.9959 0.0765
vn -0.0195 0.9995 0.0245
vn -0.0038 1.0000 0.0036
vn -0.0003 1.0000 0.0003
vn 0.0000 1.0000 -0.0000
vn -0.0316 0.9877 0.1531
vn -0.0395 0.9837 0.1754
vn -0.0105 0.9915 0.1300
vn 0.0006 0.9922 0.1247
vn -0.0124 0.9932 0.1158
vn -0.0207 0.9967 0.0779
vn -0.0118 0.9993 0.0355
vn -0.0036 0.9999 0.0117
vn -0.0008 1.0000 0.0024
vn -0.0000 1.0000 0.0001
vn -0.0191 0.9972 0.0719
vn -0.0067 0.9988 0.0475
vn -0.0008 0.9997 0.0253
vn 0.0013 0.9997 0.0239
vn -0.0031 0.9997 0.0251
vn -0.0032 0.9999 0.0120
vn -0.0004 1.0000 0.0013
# 99 vertex normals

vt -3.0102 -1.5788 0.3274
vt -2.5714 -1.5788 0.3274
vt -2.5714 -1.0072 0.3277
vt -3.0102 -1.0072 0.3274
vt -2.0449 -1.5788 0.3271
vt -2.0449 -1.0072 0.3267
vt -1.5183 -1.5788 0.3092
vt -1.5183 -1.0072 0.3057
vt -0.9918 -1.5788 0.2722
vt -0.9918 -1.0072 0.2513
vt -0.4653 -1.5788 0.2726
vt -0.4653 -1.0072 0.2137
vt 0.0612 -1.5788 0.3424
vt 0.0612 -1.0072 0.2667
vt 0.5878 -1.5788 0.4563
vt 0.5878 -1.0072 0.4063
vt 1.1143 -1.5788 0.5678
vt 1.1143 -1.0072 0.5543
vt 1.6408 -1.5788 0.6640
vt 1.6408 -1.0072 0.6639
vt 2.1673 -1.5788 0.7561
vt 2.1673 -1.0072 0.7554
vt 2.6939 -1.5788 0.8229
vt 2.6939 -1.0072 0.8229
vt 3.2204 -1.5788 0.8379
vt 3.2204 -1.0072 0.8379
vt 3.7469 -1.5788 0.8382
vt 3.7469 -1.0072 0.8382
vt 4.0102 -1.0072 0.8382
vt 4.0102 -1.5788 0.8382
vt -2.5714 -0.3835 0.3537
vt -3.0102 -0.3835 0.3960
vt -2.0449 -0.3835 0.3279
vt -1.5183 -0.3835 0.3251
vt -0.9918 -0.3835 0.3221
vt -0.4653 -0.3835 0.3312
vt 0.0612 -0.3835 0.4011
vt 0.5878 -0.3835 0.5184
vt 1.1143 -0.3835 0.6189
vt 1.6408 -0.3835 0.6995
vt 2.1673 -0.3835 0.7734
vt 2.6939 -0.3835 0.8268
vt 3.2204 -0.3835 0.8381
vt 3.7469 -0.3835 0.8382
vt 4.0102 -0.3835 0.8382
vt -2.5714 0.2401 0.3492
vt -3.0102 0.2401 0.4126
vt -2.0449 0.2401 0.3168
vt -1.5183 0.2401 0.3372
vt -0.9918 0.2401 0.3854
vt -0.4653 0.2401 0.4656
vt 0.0612 0.2401 0.5645
vt 0.5878 0.2401 0.6625
vt 1.1143 0.2401 0.7431
vt 1.6408 0.2401 0.7924
vt 2.1673 0.2401 0.8203
vt 2.6939 0.2401 0.8353
vt 3.2204 0.2401 0.8382
vt 3.7469 0.2401 0.8382
vt 4.0102 0.2401 0.8382
vt -2.5714 0.8638 0.4371
vt -3.0102 0.8638 0.4342
vt -2.0449 0.8638 0.4334
vt -1.5183 0.8638 0.4395
vt -0.9918 0.8638 0.4881
vt -0.4653 0.8638 0.5790
vt 0.0612 0.8638 0.6657
vt 0.5878 0.8638 0.7359
vt 1.1143 0.8638 0.8045
vt 1.6408 0.8638 0.8337
vt 2.1673 0.8638 0.8378
vt 2.6939 0.8638 0.8382
vt 3.2204 0.8638 0.8382
vt 3.7469 0.8638 0.8382
vt 4.0102 0.8638 0.8382
vt -2.5714 1.4874 0.6588
vt -3.0102 1.4874 0.6293
vt -2.0449 1.4874 0.6810
vt -1.5183 1.4874 0.6828
vt -0.9918 1.4874 0.6839
vt -0.4653 1.4874 0.7306
vt 0.0612 1.4874 0.7871
vt 0.5878 1.4874 0.8199
vt 1.1143 1.4874 0.8342
vt 1.6408 1.4874 0.8380
vt 2.1673 1.4874 0.8382
vt 2.6939 1.4874 0.8382
vt 3.2204 1.4874 0.8382
vt 3.7469 1.4874 0.8382
vt 4.0102 1.4874 0.8382
vt -2.5714 2.1111 0.8130
vt -3.0102 2.1111 0.7954
vt -2.0449 2.1111 0.8260
vt -1.5183 2.1111 0.8277
vt -0.9918 2.1111 0.8251
vt -0.4653 2.1111 0.8312
vt 0.0612 2.1111 0.8374
vt 0.5878 2.1111 0.8382
vt 1.1143 2.1111 0.8382
vt 1.6408 2.1111 0.8382
vt 2.1673 2.1111 0.8382
vt 2.6939 2.1111 0.8382
vt 3.2204 2.1111 0.8382
vt 3.7469 2.1111 0.8382
vt 4.0102 2.1111 0.8382
vt -3.0102 2.5788 0.8382
vt -2.5714 2.5788 0.8382
vt -2.0449 2.5788 0.8382
vt -1.5183 2.5788 0.8382
vt -0.9918 2.5788 0.8382
vt -0.4653 2.5788 0.8382
vt 0.0612 2.5788 0.8382
vt 0.5878 2.5788 0.8382
vt 1.1143 2.5788 0.8382
vt 1.6408 2.5788 0.8382
vt 2.1673 2.5788 0.8382
vt 2.6939 2.5788 0.8382
vt 3.2204 2.5788 0.8382
vt 3.7469 2.5788 0.8382
vt 4.0102 2.5788 0.8382
# 120 texture coords

g Plane001
usemtl wire_006135006
s 2
f 1/1/1 2/2/2 3/3/3 4/4/4 
f 3/3/3 2/2/2 5/5/5 6/6/6 
f 6/6/6 5/5/5 7/7/7 8/8/8 
f 9/9/9 10/10/10 8/8/8 7/7/7 
f 10/10/10 9/9/9 11/11/11 12/12/12 
f 12/12/12 11/11/11 13/13/13 14/14/14 
f 14/14/14 13/13/13 15/15/15 16/16/16 
f 17/17/17 18/18/18 16/16/16 15/15/15 
f 18/18/18 17/17/17 19/19/19 20/20/20 
f 20/20/20 19/19/19 21/21/21 22/22/22 
f 22/22/22 21/21/21 23/23/23 24/24/24 
f 25/25/25 26/26/26 24/24/24 23/23/23 
f 26/26/26 25/25/25 27/27/27 28/28/28 
f 29/29/29 28/28/28 27/27/27 30/30/30 
f 4/4/4 3/3/3 31/31/31 32/32/32 
f 6/6/6 33/33/33 31/31/31 3/3/3 
f 33/33/33 6/6/6 8/8/8 34/34/34 
f 10/10/10 35/35/35 34/34/34 8/8/8 
f 12/12/12 36/36/36 35/35/35 10/10/10 
f 14/14/14 37/37/37 36/36/36 12/12/12 
f 37/37/37 14/14/14 16/16/16 38/38/38 
f 18/18/18 39/39/39 38/38/38 16/16/16 
f 20/20/20 40/40/40 39/39/39 18/18/18 
f 22/22/22 41/41/41 40/40/40 20/20/20 
f 41/41/41 22/22/22 24/24/24 42/42/42 
f 26/26/26 43/43/43 42/42/42 24/24/24 
f 28/28/28 44/44/44 43/43/43 26/26/26 
f 45/45/29 44/44/44 28/28/28 29/29/29 
f 32/32/32 31/31/31 46/46/45 47/47/46 
f 46/46/45 31/31/31 33/33/33 48/48/47 
f 48/48/47 33/33/33 34/34/34 49/49/48 
f 35/35/35 50/50/49 49/49/48 34/34/34 
f 50/50/49 35/35/35 36/36/36 51/51/50 
f 51/51/50 36/36/36 37/37/37 52/52/51 
f 52/52/51 37/37/37 38/38/38 53/53/52 
f 39/39/39 54/54/53 53/53/52 38/38/38 
f 54/54/53 39/39/39 40/40/40 55/55/54 
f 55/55/54 40/40/40 41/41/41 56/56/55 
f 56/56/55 41/41/41 42/42/42 57/57/56 
f 43/43/43 58/58/57 57/57/56 42/42/42 
f 58/58/57 43/43/43 44/44/44 59/59/29 
f 60/60/29 59/59/29 44/44/44 45/45/29 
f 47/47/46 46/46/45 61/61/58 62/62/59 
f 48/48/47 63/63/60 61/61/58 46/46/45 
f 63/63/60 48/48/47 49/49/48 64/64/61 
f 50/50/49 65/65/62 64/64/61 49/49/48 
f 51/51/50 66/66/63 65/65/62 50/50/49 
f 52/52/51 67/67/64 66/66/63 51/51/50 
f 67/67/64 52/52/51 53/53/52 68/68/65 
f 54/54/53 69/69/66 68/68/65 53/53/52 
f 55/55/54 70/70/67 69/69/66 54/54/53 
f 56/56/55 71/71/68 70/70/67 55/55/54 
f 71/71/68 56/56/55 57/57/56 72/72/69 
f 58/58/57 73/73/29 72/72/69 57/57/56 
f 59/59/29 74/74/70 73/73/29 58/58/57 
f 75/75/29 74/74/70 59/59/29 60/60/29 
f 62/62/59 61/61/58 76/76/71 77/77/72 
f 76/76/71 61/61/58 63/63/60 78/78/73 
f 78/78/73 63/63/60 64/64/61 79/79/74 
f 65/65/62 80/80/75 79/79/74 64/64/61 
f 80/80/75 65/65/62 66/66/63 81/81/76 
f 81/81/76 66/66/63 67/67/64 82/82/77 
f 82/82/77 67/67/64 68/68/65 83/83/78 
f 69/69/66 84/84/79 83/83/78 68/68/65 
f 84/84/79 69/69/66 70/70/67 85/85/80 
f 85/85/80 70/70/67 71/71/68 86/86/81 
f 86/86/81 71/71/68 72/72/69 87/87/29 
f 73/73/29 88/88/82 87/87/29 72/72/69 
f 88/88/82 73/73/29 74/74/70 89/89/82 
f 90/90/82 89/89/82 74/74/70 75/75/29 
f 77/77/72 76/76/71 91/91/83 92/92/84 
f 78/78/73 93/93/85 91/91/83 76/76/71 
f 93/93/85 78/78/73 79/79/74 94/94/86 
f 80/80/75 95/95/87 94/94/86 79/79/74 
f 81/81/76 96/96/88 95/95/87 80/80/75 
f 82/82/77 97/97/89 96/96/88 81/81/76 
f 97/97/89 82/82/77 83/83/78 98/98/90 
f 84/84/79 99/99/91 98/98/90 83/83/78 
f 85/85/80 100/100/92 99/99/91 84/84/79 
f 86/86/81 101/101/29 100/100/92 85/85/80 
f 101/101/29 86/86/81 87/87/29 102/102/82 
f 88/88/82 103/103/82 102/102/82 87/87/29 
f 89/89/82 104/104/82 103/103/82 88/88/82 
f 105/105/82 104/104/82 89/89/82 90/90/82 
f 106/106/93 92/92/84 91/91/83 107/107/94 
f 107/107/94 91/91/83 93/93/85 108/108/95 
f 108/108/95 93/93/85 94/94/86 109/109/96 
f 109/109/96 94/94/86 95/95/87 110/110/97 
f 110/110/97 95/95/87 96/96/88 111/111/98 
f 111/111/98 96/96/88 97/97/89 112/112/99 
f 112/112/99 97/97/89 98/98/90 113/113/92 
f 113/113/92 98/98/90 99/99/91 114/114/29 
f 114/114/29 99/99/91 100/100/92 115/115/29 
f 115/115/29 100/100/92 101/101/29 116/116/82 
f 116/116/82 101/101/29 102/102/82 117/117/82 
f 117/117/82 102/102/82 103/103/82 118/118/82 
f 118/118/82 103/103/82 104/104/82 119/119/82 
f 120/120/82 119/119/82 104/104/82 105/105/82 
# 98 polygons

